<svg xmlns="http://www.w3.org/2000/svg" viewBox="0 0 16 16" shape-rendering="crispEdges"><rect x="1" y="4" width="1" height="1" fill="#271712"/><rect x="3" y="4" width="1" height="1" fill="#271712"/><rect x="4" y="4" width="1" height="1" fill="#3d0606"/><rect x="5" y="4" width="4" height="1" fill="#271712"/><rect x="12" y="4" width="2" height="1" fill="#271712"/><rect x="2" y="5" width="1" height="1" fill="#3d0606"/><rect x="3" y="5" width="2" height="1" fill="#a7442d"/><rect x="5" y="5" width="2" height="1" fill="#771d10"/><rect x="3" y="6" width="2" height="1" fill="#a7442d"/><rect x="5" y="6" width="1" height="1" fill="#771d10"/><rect x="6" y="6" width="1" height="1" fill="#a7442d"/><rect x="7" y="6" width="1" height="1" fill="#771d10"/><rect x="8" y="6" width="2" height="1" fill="#3d0606"/><rect x="11" y="6" width="2" height="1" fill="#271712"/><rect x="3" y="7" width="1" height="1" fill="#3d0606"/><rect x="4" y="7" width="3" height="1" fill="#a7442d"/><rect x="7" y="7" width="1" height="1" fill="#771d10"/><rect x="8" y="7" width="1" height="1" fill="#a7442d"/><rect x="9" y="7" width="1" height="1" fill="#771d10"/><rect x="10" y="7" width="1" height="1" fill="#3d0606"/><rect x="11" y="7" width="2" height="1" fill="#271712"/><rect x="3" y="8" width="1" height="1" fill="#3d0606"/><rect x="4" y="8" width="1" height="1" fill="#771d10"/><rect x="5" y="8" width="3" height="1" fill="#a7442d"/><rect x="8" y="8" width="1" height="1" fill="#3d0606"/><rect x="9" y="8" width="2" height="1" fill="#771d10"/><rect x="11" y="8" width="1" height="1" fill="#a7442d"/><rect x="12" y="8" width="1" height="1" fill="#3d0606"/><rect x="4" y="9" width="1" height="1" fill="#3d0606"/><rect x="5" y="9" width="2" height="1" fill="#771d10"/><rect x="7" y="9" width="2" height="1" fill="#a7442d"/><rect x="9" y="9" width="1" height="1" fill="#271712"/><rect x="10" y="9" width="2" height="1" fill="#771d10"/><rect x="12" y="9" width="1" height="1" fill="#3d0606"/><rect x="3" y="10" width="1" height="1" fill="#271712"/><rect x="6" y="10" width="2" height="1" fill="#3d0606"/><rect x="8" y="10" width="1" height="1" fill="#a7442d"/><rect x="9" y="10" width="2" height="1" fill="#771d10"/><rect x="11" y="10" width="1" height="1" fill="#3d0606"/><rect x="12" y="10" width="1" height="1" fill="#271712"/><rect x="1" y="11" width="4" height="1" fill="#271712"/><rect x="9" y="11" width="2" height="1" fill="#3d0606"/><rect x="13" y="11" width="1" height="1" fill="#271712"/></svg>